<svg xmlns="http://www.w3.org/2000/svg" viewBox="0 0 180 180" width="180" height="180">
  <rect width="180" height="180" fill="#0d1117"/>
  <!-- Red row -->
  <rect x="28"  y="34"  width="22" height="22" rx="6" fill="#30363d"/>
  <rect x="62"  y="34"  width="22" height="22" rx="6" fill="#C60C30"/>
  <rect x="96"  y="34"  width="22" height="22" rx="6" fill="#30363d"/>
  <rect x="130" y="34"  width="22" height="22" rx="6" fill="#C60C30" opacity="0.5"/>
  <!-- Blue row -->
  <rect x="28"  y="79"  width="22" height="22" rx="6" fill="#00A1DE"/>
  <rect x="62"  y="79"  width="22" height="22" rx="6" fill="#30363d"/>
  <rect x="96"  y="79"  width="22" height="22" rx="6" fill="#00A1DE" opacity="0.5"/>
  <rect x="130" y="79"  width="22" height="22" rx="6" fill="#30363d"/>
  <!-- Green row -->
  <rect x="28"  y="124" width="22" height="22" rx="6" fill="#30363d"/>
  <rect x="62"  y="124" width="22" height="22" rx="6" fill="#30363d"/>
  <rect x="96"  y="124" width="22" height="22" rx="6" fill="#009B3A"/>
  <rect x="130" y="124" width="22" height="22" rx="6" fill="#30363d"/>
</svg>
