<svg xmlns="http://www.w3.org/2000/svg" viewBox="0 0 32 32">
  <rect width="32" height="32" rx="6" fill="#0d1117"/>
  <!-- Red row -->
  <rect x="4"  y="6"  width="4" height="4" rx="1" fill="#30363d"/>
  <rect x="10" y="6"  width="4" height="4" rx="1" fill="#C60C30"/>
  <rect x="16" y="6"  width="4" height="4" rx="1" fill="#30363d"/>
  <rect x="22" y="6"  width="4" height="4" rx="1" fill="#C60C30" opacity="0.5"/>
  <!-- Blue row -->
  <rect x="4"  y="14" width="4" height="4" rx="1" fill="#00A1DE"/>
  <rect x="10" y="14" width="4" height="4" rx="1" fill="#30363d"/>
  <rect x="16" y="14" width="4" height="4" rx="1" fill="#00A1DE" opacity="0.5"/>
  <rect x="22" y="14" width="4" height="4" rx="1" fill="#30363d"/>
  <!-- Green row -->
  <rect x="4"  y="22" width="4" height="4" rx="1" fill="#30363d"/>
  <rect x="10" y="22" width="4" height="4" rx="1" fill="#30363d"/>
  <rect x="16" y="22" width="4" height="4" rx="1" fill="#009B3A"/>
  <rect x="22" y="22" width="4" height="4" rx="1" fill="#30363d"/>
</svg>
